# xmcd
#
# Track frame offsets:
#	150
#	12300
#	26417
#	42167
#	59034
#	72286
#	86565
#	101314
#	115090
#	125354
#	136924
#	150007
#
# Disc length: 2128 seconds
#
# Revision: 0
# Processed by: cddbd v1.5.2PL0 Copyright (c) Steve Scherf et al.
# Submitted via: audiograbber 1.83.01
#
DISCID=8e084e0c
DTITLE=Joe Mullins and The Radio Ramblers - Ramblere's Call
DYEAR=2010
DGENRE=Bluegrass
TTITLE0=Another Day, Another Dollar
TTITLE1=The Old Rockin' Chair
TTITLE2=Boston Jail
TTITLE3=Farmer's Blues
TTITLE4=No Longer An Orphan
TTITLE5=Rambler's Call
TTITLE6=Heaven's Green Fields
TTITLE7=Smoke Along The Track
TTITLE8=Old Blue Tomorrow
TTITLE9=Charlotte Breakdown
TTITLE10=Mountain Girl
TTITLE11=Don't You Want To Go Home
EXTD=
EXTT0=
EXTT1=
EXTT2=
EXTT3=
EXTT4=
EXTT5=
EXTT6=
EXTT7=
EXTT8=
EXTT9=
EXTT10=
EXTT11=
PLAYORDER=
